<svg xmlns="http://www.w3.org/2000/svg" width="25.992" height="20" viewBox="0 0 25.992 20">
  <g id="Group_107" data-name="Group 107" transform="translate(-742.354 -670)">
    <path id="Icon_ionic-ios-backspace" data-name="Icon ionic-ios-backspace" d="M25.056,6.75H14.746c-2.918,0-4.574,2.168-6.373,3.968s-4.5,4.667-4.5,4.667a1.965,1.965,0,0,0-.494,1.306A2.006,2.006,0,0,0,3.869,18s2.143,2.349,4.5,4.717,3.543,4.03,6.373,4.03H25.056a4.387,4.387,0,0,0,4.311-4.436V11.061A4.28,4.28,0,0,0,25.056,6.75ZM23.95,20.04a1,1,0,0,1-1.412,1.412l-3.293-3.293-3.293,3.293a.992.992,0,0,1-1.412,0,.965.965,0,0,1,0-1.412l3.293-3.293L14.54,13.454a.965.965,0,0,1,0-1.412.955.955,0,0,1,1.412,0l3.293,3.293,3.293-3.293a1,1,0,0,1,1.412,1.412l-3.293,3.293Z" transform="translate(738.979 663.25)"/>
  </g>
</svg>
