<svg width="45" height="40" viewBox="0 0 45 40" fill="none" xmlns="http://www.w3.org/2000/svg">
<path d="M6.60547 8.80713H11.0089V30.8242H6.60547V8.80713ZM26.4209 8.80713H28.6226V30.8242H26.4209V8.80713ZM17.614 8.80713H24.2191V30.8242H17.614V8.80713ZM13.2106 8.80713H15.4123V30.8242H13.2106V8.80713ZM30.8243 8.80713H37.4294V30.8242H30.8243V8.80713Z" fill="#111111"/>
<path d="M4.40342 4.40342H13.2103V0H4.40342C1.97493 0 0 1.97493 0 4.40342V13.2103H4.40342V4.40342ZM4.40342 39.6308H13.2103V35.2273H4.40342V26.4205H0V35.2273C0 37.6558 1.97493 39.6308 4.40342 39.6308ZM39.6308 0H30.8239V4.40342H39.6308V13.2103H44.0342V4.40342C44.0342 1.97493 42.0592 0 39.6308 0ZM39.6308 35.2273H30.8239V39.6308H39.6308C42.0592 39.6308 44.0342 37.6558 44.0342 35.2273V26.4205H39.6308V35.2273Z" fill="#111111"/>
</svg>
