<svg width="22" height="18" viewBox="0 0 22 18" fill="none" xmlns="http://www.w3.org/2000/svg">
<path d="M15 12.3083V2.79834C15 2.26791 14.7893 1.7592 14.4142 1.38413C14.0391 1.00905 13.5304 0.79834 13 0.79834H3C2.46957 0.79834 1.96086 1.00905 1.58579 1.38413C1.21071 1.7592 1 2.26791 1 2.79834V11.7983C1 12.0636 1.10536 12.3179 1.29289 12.5054C1.48043 12.693 1.73478 12.7983 2 12.7983H2.71C2.90493 12.3533 3.22534 11.9746 3.63204 11.7088C4.03874 11.4429 4.5141 11.3013 5 11.3013C5.4859 11.3013 5.96126 11.4429 6.36796 11.7088C6.77466 11.9746 7.09507 12.3533 7.29 12.7983H14.71C14.7833 12.6217 14.88 12.4583 15 12.3083ZM15 12.3083C15.2599 11.9558 15.6081 11.6781 16.0096 11.5032C16.4111 11.3282 16.8517 11.2623 17.2868 11.312C17.7219 11.3617 18.1362 11.5253 18.4879 11.7862C18.8396 12.0472 19.1163 12.3963 19.29 12.7983H21V9.90834C21.0004 9.18268 20.8033 8.47059 20.43 7.84834L19.2 5.79834L18.29 4.28834C18.2015 4.13906 18.0757 4.01539 17.9249 3.92948C17.7741 3.84356 17.6035 3.79837 17.43 3.79834H15V12.3083Z" stroke="#2352A6" stroke-width="1.5" stroke-linecap="round" stroke-linejoin="round"/>
<path d="M10 7.79834H5M10 4.79834H5M7.5 13.7983C7.50044 14.1702 7.41789 14.5376 7.25839 14.8735C7.09888 15.2095 6.86642 15.5056 6.57796 15.7404C6.2895 15.9751 5.9523 16.1425 5.59094 16.2304C5.22957 16.3183 4.85315 16.3245 4.48909 16.2485C4.12504 16.1725 3.78253 16.0162 3.48652 15.7911C3.19051 15.566 2.94846 15.2776 2.77802 14.9471C2.60757 14.6165 2.51302 14.2521 2.50125 13.8804C2.48948 13.5087 2.5608 13.139 2.71 12.7983C2.9402 12.2727 3.34422 11.8423 3.85423 11.5793C4.36424 11.3163 4.94919 11.2368 5.51091 11.354C6.07262 11.4713 6.57689 11.7782 6.93908 12.2233C7.30127 12.6684 7.49932 13.2245 7.5 13.7983ZM19.5 13.7983C19.5004 14.1702 19.4179 14.5376 19.2584 14.8735C19.0989 15.2095 18.8664 15.5056 18.578 15.7404C18.2895 15.9751 17.9523 16.1425 17.5909 16.2304C17.2296 16.3183 16.8531 16.3245 16.4891 16.2485C16.125 16.1725 15.7825 16.0162 15.4865 15.7911C15.1905 15.566 14.9485 15.2776 14.778 14.9471C14.6076 14.6165 14.513 14.2521 14.5013 13.8804C14.4895 13.5087 14.5608 13.139 14.71 12.7983C14.7833 12.6217 14.88 12.4583 15 12.3083C15.2599 11.9558 15.6081 11.6781 16.0096 11.5032C16.4111 11.3282 16.8517 11.2623 17.2868 11.312C17.7219 11.3617 18.1362 11.5253 18.4879 11.7862C18.8396 12.0472 19.1163 12.3963 19.29 12.7983C19.43 13.1133 19.502 13.4543 19.5 13.7983Z" stroke="#2352A6" stroke-width="1.5" stroke-linecap="round" stroke-linejoin="round"/>
</svg>
